<svg width="200" height="68" viewBox="0 0 200 68" fill="none" xmlns="http://www.w3.org/2000/svg">
<path d="M6.44 24.344V36.104C6.44 37.28 6.72933 38.1853 7.308 38.82C7.88667 39.4547 8.736 39.772 9.856 39.772C10.976 39.772 11.8347 39.4547 12.432 38.82C13.0293 38.1853 13.328 37.28 13.328 36.104V24.344H18.116V36.076C18.116 37.8307 17.7427 39.3147 16.996 40.528C16.2493 41.7413 15.2413 42.656 13.972 43.272C12.7213 43.888 11.3213 44.196 9.772 44.196C8.22267 44.196 6.832 43.8973 5.6 43.3C4.38667 42.684 3.42533 41.7693 2.716 40.556C2.00667 39.324 1.652 37.8307 1.652 36.076V24.344H6.44ZM30.9982 28.208C32.8275 28.208 34.2835 28.8053 35.3662 30C36.4675 31.176 37.0182 32.8 37.0182 34.872V44H32.2582V35.516C32.2582 34.4707 31.9875 33.6587 31.4462 33.08C30.9049 32.5013 30.1769 32.212 29.2622 32.212C28.3475 32.212 27.6195 32.5013 27.0782 33.08C26.5369 33.6587 26.2662 34.4707 26.2662 35.516V44H21.4782V28.376H26.2662V30.448C26.7515 29.7573 27.4049 29.216 28.2262 28.824C29.0475 28.4133 29.9715 28.208 30.9982 28.208ZM55.0734 35.936C55.0734 36.384 55.0454 36.8507 54.9894 37.336H44.1534C44.228 38.3067 44.536 39.0533 45.0774 39.576C45.6374 40.08 46.3187 40.332 47.1214 40.332C48.316 40.332 49.1467 39.828 49.6134 38.82H54.7094C54.448 39.8467 53.972 40.7707 53.2814 41.592C52.6094 42.4133 51.76 43.0573 50.7334 43.524C49.7067 43.9907 48.5587 44.224 47.2894 44.224C45.7587 44.224 44.396 43.8973 43.2014 43.244C42.0067 42.5907 41.0734 41.6573 40.4014 40.444C39.7294 39.2307 39.3934 37.812 39.3934 36.188C39.3934 34.564 39.72 33.1453 40.3734 31.932C41.0454 30.7187 41.9787 29.7853 43.1734 29.132C44.368 28.4787 45.74 28.152 47.2894 28.152C48.8014 28.152 50.1454 28.4693 51.3214 29.104C52.4974 29.7387 53.412 30.644 54.0654 31.82C54.7374 32.996 55.0734 34.368 55.0734 35.936ZM50.1734 34.676C50.1734 33.8547 49.8934 33.2013 49.3334 32.716C48.7734 32.2307 48.0734 31.988 47.2334 31.988C46.4307 31.988 45.7494 32.2213 45.1894 32.688C44.648 33.1547 44.312 33.8173 44.1814 34.676H50.1734ZM63.9553 44.224C62.5926 44.224 61.3793 43.9907 60.3153 43.524C59.2513 43.0573 58.4113 42.4227 57.7953 41.62C57.1793 40.7987 56.8339 39.884 56.7593 38.876H61.4913C61.5473 39.4173 61.7993 39.856 62.2473 40.192C62.6953 40.528 63.2459 40.696 63.8993 40.696C64.4966 40.696 64.9539 40.584 65.2713 40.36C65.6073 40.1173 65.7753 39.8093 65.7753 39.436C65.7753 38.988 65.5419 38.6613 65.0753 38.456C64.6086 38.232 63.8526 37.9893 62.8073 37.728C61.6873 37.4667 60.7539 37.196 60.0073 36.916C59.2606 36.6173 58.6166 36.16 58.0753 35.544C57.5339 34.9093 57.2633 34.06 57.2633 32.996C57.2633 32.1 57.5059 31.288 57.9913 30.56C58.4953 29.8133 59.2233 29.2253 60.1753 28.796C61.1459 28.3667 62.2939 28.152 63.6193 28.152C65.5793 28.152 67.1193 28.6373 68.2393 29.608C69.3779 30.5787 70.0313 31.8667 70.1993 33.472H65.7753C65.7006 32.9307 65.4579 32.5013 65.0473 32.184C64.6553 31.8667 64.1326 31.708 63.4793 31.708C62.9193 31.708 62.4899 31.82 62.1913 32.044C61.8926 32.2493 61.7433 32.5387 61.7433 32.912C61.7433 33.36 61.9766 33.696 62.4433 33.92C62.9286 34.144 63.6753 34.368 64.6833 34.592C65.8406 34.8907 66.7833 35.1893 67.5113 35.488C68.2393 35.768 68.8739 36.2347 69.4153 36.888C69.9753 37.5227 70.2646 38.3813 70.2833 39.464C70.2833 40.3787 70.0219 41.2 69.4993 41.928C68.9953 42.6373 68.2579 43.1973 67.2873 43.608C66.3353 44.0187 65.2246 44.224 63.9553 44.224ZM72.2606 36.16C72.2606 34.5547 72.5592 33.1453 73.1566 31.932C73.7726 30.7187 74.6032 29.7853 75.6486 29.132C76.6939 28.4787 77.8606 28.152 79.1486 28.152C80.2499 28.152 81.2112 28.376 82.0326 28.824C82.8726 29.272 83.5166 29.86 83.9646 30.588V28.376H88.7526V44H83.9646V41.788C83.4979 42.516 82.8446 43.104 82.0046 43.552C81.1832 44 80.2219 44.224 79.1206 44.224C77.8512 44.224 76.6939 43.8973 75.6486 43.244C74.6032 42.572 73.7726 41.6293 73.1566 40.416C72.5592 39.184 72.2606 37.7653 72.2606 36.16ZM83.9646 36.188C83.9646 34.9933 83.6286 34.0507 82.9566 33.36C82.3032 32.6693 81.5006 32.324 80.5486 32.324C79.5966 32.324 78.7846 32.6693 78.1126 33.36C77.4592 34.032 77.1326 34.9653 77.1326 36.16C77.1326 37.3547 77.4592 38.3067 78.1126 39.016C78.7846 39.7067 79.5966 40.052 80.5486 40.052C81.5006 40.052 82.3032 39.7067 82.9566 39.016C83.6286 38.3253 83.9646 37.3827 83.9646 36.188ZM97.0045 40.304H103.276V44H92.2165V24.344H97.0045V40.304ZM120.288 35.936C120.288 36.384 120.26 36.8507 120.204 37.336H109.368C109.443 38.3067 109.751 39.0533 110.292 39.576C110.852 40.08 111.534 40.332 112.336 40.332C113.531 40.332 114.362 39.828 114.828 38.82H119.924C119.663 39.8467 119.187 40.7707 118.496 41.592C117.824 42.4133 116.975 43.0573 115.948 43.524C114.922 43.9907 113.774 44.224 112.504 44.224C110.974 44.224 109.611 43.8973 108.416 43.244C107.222 42.5907 106.288 41.6573 105.616 40.444C104.944 39.2307 104.608 37.812 104.608 36.188C104.608 34.564 104.935 33.1453 105.588 31.932C106.26 30.7187 107.194 29.7853 108.388 29.132C109.583 28.4787 110.955 28.152 112.504 28.152C114.016 28.152 115.36 28.4693 116.536 29.104C117.712 29.7387 118.627 30.644 119.28 31.82C119.952 32.996 120.288 34.368 120.288 35.936ZM115.388 34.676C115.388 33.8547 115.108 33.2013 114.548 32.716C113.988 32.2307 113.288 31.988 112.448 31.988C111.646 31.988 110.964 32.2213 110.404 32.688C109.863 33.1547 109.527 33.8173 109.396 34.676H115.388ZM121.862 36.16C121.862 34.5547 122.161 33.1453 122.758 31.932C123.374 30.7187 124.205 29.7853 125.25 29.132C126.295 28.4787 127.462 28.152 128.75 28.152C129.851 28.152 130.813 28.376 131.634 28.824C132.474 29.272 133.118 29.86 133.566 30.588V28.376H138.354V44H133.566V41.788C133.099 42.516 132.446 43.104 131.606 43.552C130.785 44 129.823 44.224 128.722 44.224C127.453 44.224 126.295 43.8973 125.25 43.244C124.205 42.572 123.374 41.6293 122.758 40.416C122.161 39.184 121.862 37.7653 121.862 36.16ZM133.566 36.188C133.566 34.9933 133.23 34.0507 132.558 33.36C131.905 32.6693 131.102 32.324 130.15 32.324C129.198 32.324 128.386 32.6693 127.714 33.36C127.061 34.032 126.734 34.9653 126.734 36.16C126.734 37.3547 127.061 38.3067 127.714 39.016C128.386 39.7067 129.198 40.052 130.15 40.052C131.102 40.052 131.905 39.7067 132.558 39.016C133.23 38.3253 133.566 37.3827 133.566 36.188ZM146.606 30.98C147.166 30.1213 147.866 29.4493 148.706 28.964C149.546 28.46 150.479 28.208 151.506 28.208V33.276H150.19C148.995 33.276 148.099 33.5373 147.502 34.06C146.905 34.564 146.606 35.46 146.606 36.748V44H141.818V28.376H146.606V30.98ZM163.315 28.208C165.144 28.208 166.6 28.8053 167.683 30C168.784 31.176 169.335 32.8 169.335 34.872V44H164.575V35.516C164.575 34.4707 164.304 33.6587 163.763 33.08C163.221 32.5013 162.493 32.212 161.579 32.212C160.664 32.212 159.936 32.5013 159.395 33.08C158.853 33.6587 158.583 34.4707 158.583 35.516V44H153.795V28.376H158.583V30.448C159.068 29.7573 159.721 29.216 160.543 28.824C161.364 28.4133 162.288 28.208 163.315 28.208Z" fill="#1B2143"/>
<path d="M196.605 37.715H188.775V45.725H181.485V37.715H173.655V30.83H181.485V22.775H188.775V30.83H196.605V37.715Z" fill="#2CA6E0"/>
</svg>
