<svg width="70" height="98" viewBox="0 0 70 98" fill="none" xmlns="http://www.w3.org/2000/svg">
<path d="M61.707 95.0109H58.948L57.636 84.3689H61.708L61.707 95.0109Z" fill="#FFB8B8"/>
<path d="M56.976 94.2219H62.297V97.5719H53.626C53.626 96.6834 53.9789 95.8313 54.6072 95.2031C55.2354 94.5748 56.0875 94.2219 56.976 94.2219Z" fill="#2F2E41"/>
<path d="M33.519 95.0109H30.76L29.448 84.3689H33.52L33.519 95.0109Z" fill="#FFB8B8"/>
<path d="M28.789 94.2219H34.11V97.5719H25.439C25.439 96.6834 25.792 95.8313 26.4202 95.2031C27.0485 94.5748 27.9006 94.2219 28.789 94.2219Z" fill="#2F2E41"/>
<path d="M42.735 16.0699V14.8629C42.735 13.8408 42.9363 12.8288 43.3274 11.8845C43.7186 10.9402 44.2918 10.0822 45.0146 9.35948C45.7373 8.63676 46.5953 8.06348 47.5396 7.67235C48.4838 7.28122 49.4959 7.0799 50.518 7.0799C52.5822 7.0799 54.5618 7.89989 56.0214 9.35948C57.481 10.8191 58.301 12.7987 58.301 14.8629V16.0699C58.301 17.558 57.7098 18.9852 56.6576 20.0375C55.6053 21.0897 54.1781 21.6809 52.69 21.6809H48.346C46.8578 21.6809 45.4307 21.0897 44.3784 20.0375C43.3261 18.9852 42.735 17.558 42.735 16.0699Z" fill="#2F2E41"/>
<path d="M50.519 22.0969C53.7929 22.0969 56.447 19.4429 56.447 16.1689C56.447 12.895 53.7929 10.2409 50.519 10.2409C47.2451 10.2409 44.591 12.895 44.591 16.1689C44.591 19.4429 47.2451 22.0969 50.519 22.0969Z" fill="#FFB8B8"/>
<path d="M18.276 36.5409C18.5162 36.3136 18.8034 36.1417 19.1172 36.0373C19.431 35.9329 19.7638 35.8986 20.0924 35.9367C20.4209 35.9749 20.737 36.0846 21.0186 36.258C21.3002 36.4315 21.5403 36.6646 21.722 36.9409L26.803 35.9799L28.14 38.9249L20.945 40.1819C20.4599 40.4567 19.8908 40.5439 19.3457 40.4268C18.8006 40.3097 18.3175 39.9965 17.9881 39.5466C17.6587 39.0968 17.506 38.5417 17.5588 37.9867C17.6117 37.4317 17.8666 36.9154 18.275 36.5359L18.276 36.5409Z" fill="#FFB8B8"/>
<path d="M45.897 25.8289L45.963 25.9289L37.63 31.4179L23.57 35.9079C23.3841 35.9678 23.2246 36.0901 23.1186 36.2542C23.0125 36.4182 22.9664 36.6138 22.988 36.8079L23.295 39.4499C23.3086 39.5668 23.3464 39.6797 23.4061 39.7812C23.4658 39.8826 23.5461 39.9705 23.6417 40.0391C23.7374 40.1078 23.8464 40.1557 23.9616 40.1797C24.0769 40.2038 24.1959 40.2035 24.311 40.1789L37.544 37.3429C38.1844 37.2065 38.7899 36.94 39.323 36.5599L48.684 29.8999C49.2107 29.5391 49.5725 28.9838 49.6898 28.3562C49.8071 27.7286 49.6703 27.0801 49.3095 26.5534C48.9487 26.0267 48.3934 25.6649 47.7658 25.5476C47.1382 25.4303 46.4897 25.5671 45.963 25.9279L45.897 25.8289Z" fill="#1B2143"/>
<path d="M58.997 91.9909C58.7849 91.9913 58.5774 91.9298 58.3998 91.814C58.2222 91.6982 58.0822 91.5331 57.997 91.3389L45.348 60.0849C45.3185 60.0171 45.2689 59.9599 45.2059 59.9211C45.143 59.8823 45.0696 59.8637 44.9958 59.8678C44.9219 59.872 44.8511 59.8986 44.7928 59.9442C44.7346 59.9898 44.6917 60.0522 44.67 60.1229L34.352 90.5489C34.3087 90.6907 34.2368 90.8221 34.1408 90.935C34.0448 91.0479 33.9267 91.14 33.7938 91.2056C33.6609 91.2712 33.5159 91.3089 33.3679 91.3163C33.2198 91.3238 33.0718 91.3008 32.933 91.2489L29.473 89.9489C29.285 89.8793 29.12 89.7588 28.9964 89.601C28.8728 89.4431 28.7955 89.2541 28.773 89.0549C27.216 75.4929 40.792 41.2619 40.929 40.9169L40.967 40.8169L53.342 43.5549L53.368 43.5829C58.305 48.9689 62.368 82.9419 63.127 89.6979C63.1555 89.942 63.1001 90.1885 62.9697 90.3968C62.8394 90.6051 62.642 90.7628 62.41 90.8439L59.355 91.9239C59.2403 91.9664 59.1192 91.9891 58.997 91.9909Z" fill="#374B5C"/>
<path d="M48.334 44.6619C45.334 44.6619 41.993 44.0619 40.964 41.5969L40.94 41.5399L40.972 41.4869C41.784 40.1539 42.858 37.8809 42.281 37.4549C41.6866 36.9611 41.2253 36.3265 40.939 35.6088C40.6527 34.8911 40.5506 34.1131 40.642 33.3459C40.7254 31.3062 41.4373 29.3422 42.6803 27.7228C43.9232 26.1035 45.6363 24.9079 47.585 24.2999C48.7143 23.9385 49.8636 23.6427 51.027 23.4139C51.8753 23.2427 52.7509 23.2615 53.591 23.469C54.4312 23.6765 55.2149 24.0675 55.886 24.6139C56.5663 25.1633 57.1165 25.8566 57.4969 26.6441C57.8773 27.4315 58.0785 28.2934 58.086 29.1679C58.128 33.5439 57.455 39.6379 54.004 43.8219C53.8425 44.0161 53.6176 44.1471 53.369 44.1919C51.7072 44.4923 50.0227 44.6496 48.334 44.6619Z" fill="#1B2143"/>
<path d="M47.2189 44.5009C47.3821 43.9155 47.7698 43.4182 48.2977 43.1171C48.8256 42.816 49.451 42.7354 50.0379 42.8929C50.1576 42.9263 50.2743 42.9694 50.3869 43.0219L54.245 39.5109L56.9279 41.3189L51.41 46.2019C51.1611 46.6515 50.7688 47.0047 50.2958 47.2054C49.8227 47.406 49.2961 47.4425 48.7999 47.3089C48.5109 47.2297 48.2405 47.094 48.0043 46.9096C47.768 46.7253 47.5707 46.4959 47.4237 46.2347C47.2766 45.9736 47.1829 45.6859 47.1477 45.3883C47.1126 45.0907 47.1368 44.7891 47.2189 44.5009Z" fill="#FFB8B8"/>
<path d="M53.634 44.5429C53.3836 44.5431 53.1408 44.4565 52.947 44.2979L51.426 43.0549C51.2997 42.9512 51.1983 42.8204 51.1296 42.6722C51.0608 42.5239 51.0264 42.362 51.0289 42.1986C51.0314 42.0352 51.0707 41.8745 51.144 41.7284C51.2173 41.5823 51.3226 41.4546 51.452 41.3549L57.8341 36.4609C57.9097 36.4025 57.9593 36.3166 57.972 36.2219C57.9847 36.1271 57.9596 36.0312 57.902 35.9549L53.963 30.7479C53.5054 30.145 53.2759 29.3996 53.3151 28.6438C53.3542 27.8879 53.6596 27.1703 54.177 26.6179C54.7224 26.0299 55.4688 25.6681 56.2683 25.6042C57.0678 25.5403 57.8621 25.7789 58.494 26.2729L58.519 26.2989L62.632 32.1879C63.0767 32.5367 63.4348 32.9835 63.6782 33.4935C63.9217 34.0035 64.044 34.5629 64.0356 35.128C64.0272 35.6931 63.8883 36.2485 63.6297 36.7511C63.3711 37.2536 62.9999 37.6895 62.545 38.0249L54.28 44.3329C54.0926 44.47 53.8663 44.5436 53.634 44.5429Z" fill="#1B2143"/>
<path d="M45.268 14.5009V11.5629L50.519 9.2699L55.525 11.5629V14.5039C55.525 14.632 55.4741 14.7548 55.3836 14.8454C55.293 14.936 55.1701 14.9869 55.042 14.9869H45.75C45.6864 14.9868 45.6235 14.9741 45.5648 14.9496C45.5061 14.925 45.4528 14.8892 45.4081 14.844C45.3633 14.7989 45.3278 14.7453 45.3038 14.6864C45.2798 14.6275 45.2676 14.5645 45.268 14.5009Z" fill="#2F2E41"/>
<path d="M50.277 7.46991C49.9759 6.20774 50.138 4.87943 50.7337 3.72668C51.3294 2.57394 52.3192 1.67338 53.5229 1.1889C54.7477 0.756883 56.0639 0.651592 57.3418 0.88342C58.6196 1.11525 59.815 1.67619 60.81 2.51091C62.7842 4.21696 64.1647 6.50662 64.7519 9.0489C65.3282 11.576 65.6346 14.1571 65.6659 16.7489C66.7802 16.9536 67.7964 17.5184 68.5585 18.3567C69.3205 19.1949 69.7863 20.2602 69.8842 21.3888C69.9821 22.5175 69.7067 23.647 69.1004 24.604C68.4941 25.5609 67.5903 26.2923 66.5279 26.6858C65.4656 27.0793 64.3034 27.1131 63.22 26.782C62.1366 26.4509 61.1919 25.7733 60.5309 24.8531C59.87 23.933 59.5295 22.8214 59.5616 21.689C59.5938 20.5565 59.9969 19.466 60.709 18.5849C61.5994 17.483 62.0969 16.1156 62.1224 14.6991C62.148 13.2826 61.7003 11.8981 60.8502 10.7648C60 9.63148 58.7961 8.81419 57.4291 8.44235C56.062 8.07051 54.61 8.16536 53.303 8.7119C51.852 9.3149 50.03 7.73791 50.277 7.46991Z" fill="#2F2E41"/>
<path d="M17.187 25.1319C13.6613 25.1089 10.1797 24.3464 6.96699 22.8939C6.77578 22.8088 6.61346 22.6698 6.49983 22.4941C6.38619 22.3183 6.32613 22.1132 6.32697 21.9039V13.1149C6.32724 12.827 6.44176 12.5509 6.64536 12.3473C6.84897 12.1437 7.12503 12.0292 7.41297 12.0289H26.962C27.2499 12.0292 27.526 12.1437 27.7296 12.3473C27.9332 12.5509 28.0477 12.827 28.048 13.1149V21.9039C28.0488 22.1132 27.9888 22.3183 27.8751 22.4941C27.7615 22.6698 27.5992 22.8088 27.408 22.8939C24.195 24.3466 20.713 25.109 17.187 25.1319Z" fill="#1B2143"/>
<path d="M17.184 18.0119C17.0391 18.012 16.8956 17.9831 16.762 17.9269L1.26199 11.3869C1.06208 11.3026 0.892032 11.1603 0.773742 10.9784C0.655453 10.7965 0.594346 10.5833 0.598327 10.3664C0.602309 10.1495 0.671197 9.93868 0.796081 9.76125C0.920966 9.58382 1.09614 9.44787 1.29901 9.37092L16.799 3.48992C17.0485 3.39423 17.3245 3.39423 17.574 3.48992L32.868 9.37092C33.0697 9.44853 33.2436 9.58452 33.3675 9.76151C33.4914 9.9385 33.5597 10.1484 33.5637 10.3645C33.5677 10.5805 33.5071 10.7928 33.3898 10.9742C33.2724 11.1556 33.1037 11.2979 32.905 11.3829L17.61 17.9229C17.4754 17.981 17.3305 18.0113 17.184 18.0119Z" fill="#1B2143"/>
<path d="M8.13599 23.4919C8.9357 23.4919 9.58399 22.8436 9.58399 22.0439C9.58399 21.2442 8.9357 20.5959 8.13599 20.5959C7.33628 20.5959 6.68799 21.2442 6.68799 22.0439C6.68799 22.8436 7.33628 23.4919 8.13599 23.4919Z" fill="white"/>
<path opacity="0.2" d="M32.959 10.4559L17.664 16.9959C17.5446 17.0466 17.4162 17.0727 17.2865 17.0727C17.1567 17.0727 17.0284 17.0466 16.909 16.9959L1.40896 10.4559C1.21408 10.3758 1.0515 10.2329 0.946957 10.0499C0.878687 10.1685 0.836416 10.3002 0.822934 10.4364C0.809451 10.5725 0.825081 10.71 0.868771 10.8396C0.912461 10.9693 0.983217 11.0881 1.07635 11.1884C1.16949 11.2886 1.28286 11.3679 1.40896 11.4209L16.909 17.9609C17.0283 18.0117 17.1567 18.0378 17.2865 18.0378C17.4162 18.0378 17.5446 18.0117 17.664 17.9609L32.959 11.4209C33.0844 11.3673 33.197 11.2878 33.2894 11.1875C33.3818 11.0872 33.4519 10.9685 33.4951 10.8391C33.5383 10.7098 33.5536 10.5727 33.5399 10.437C33.5263 10.3014 33.484 10.1701 33.416 10.0519C33.3123 10.2333 33.1517 10.3753 32.959 10.4559Z" fill="black"/>
<path d="M8.25703 22.0389C8.28868 22.0389 8.32001 22.0327 8.34925 22.0206C8.37849 22.0085 8.40506 21.9907 8.42744 21.9683C8.44982 21.946 8.46757 21.9194 8.47968 21.8902C8.4918 21.8609 8.49802 21.8296 8.49802 21.7979V13.7219L16.458 10.8219C16.4897 10.8224 16.5212 10.8166 16.5507 10.8049C16.5802 10.7932 16.607 10.7758 16.6298 10.7537C16.6525 10.7316 16.6707 10.7052 16.6833 10.6761C16.6959 10.6469 16.7026 10.6156 16.703 10.5839C16.7035 10.5522 16.6977 10.5207 16.686 10.4912C16.6743 10.4618 16.6569 10.4349 16.6348 10.4121C16.6127 10.3894 16.5863 10.3712 16.5572 10.3586C16.528 10.3461 16.4967 10.3394 16.465 10.3389L8.50501 13.2389C8.44093 13.2374 8.37724 13.249 8.31776 13.2729C8.25828 13.2968 8.20425 13.3325 8.159 13.3779C8.11322 13.4227 8.0769 13.4763 8.05216 13.5353C8.02743 13.5944 8.01481 13.6579 8.01502 13.7219V21.7959C8.01476 21.8278 8.02082 21.8595 8.03288 21.889C8.04493 21.9185 8.06273 21.9454 8.08524 21.968C8.10776 21.9906 8.13452 22.0085 8.16401 22.0207C8.1935 22.0329 8.22513 22.0391 8.25703 22.0389Z" fill="white"/>
</svg>
