<svg width="145" height="53" viewBox="0 0 145 53" fill="none" xmlns="http://www.w3.org/2000/svg">
<path d="M4.6 19.96V28.36C4.6 29.2 4.80667 29.8467 5.22 30.3C5.63333 30.7533 6.24 30.98 7.04 30.98C7.84 30.98 8.45333 30.7533 8.88 30.3C9.30667 29.8467 9.52 29.2 9.52 28.36V19.96H12.94V28.34C12.94 29.5933 12.6733 30.6533 12.14 31.52C11.6067 32.3867 10.8867 33.04 9.98 33.48C9.08667 33.92 8.08667 34.14 6.98 34.14C5.87333 34.14 4.88 33.9267 4 33.5C3.13333 33.06 2.44667 32.4067 1.94 31.54C1.43333 30.66 1.18 29.5933 1.18 28.34V19.96H4.6ZM22.1416 22.72C23.4482 22.72 24.4882 23.1467 25.2616 24C26.0482 24.84 26.4416 26 26.4416 27.48V34H23.0416V27.94C23.0416 27.1933 22.8482 26.6133 22.4616 26.2C22.0749 25.7867 21.5549 25.58 20.9016 25.58C20.2482 25.58 19.7282 25.7867 19.3416 26.2C18.9549 26.6133 18.7616 27.1933 18.7616 27.94V34H15.3416V22.84H18.7616V24.32C19.1082 23.8267 19.5749 23.44 20.1616 23.16C20.7482 22.8667 21.4082 22.72 22.1416 22.72ZM39.3381 28.24C39.3381 28.56 39.3181 28.8933 39.2781 29.24H31.5381C31.5915 29.9333 31.8115 30.4667 32.1981 30.84C32.5981 31.2 33.0848 31.38 33.6581 31.38C34.5115 31.38 35.1048 31.02 35.4381 30.3H39.0781C38.8915 31.0333 38.5515 31.6933 38.0581 32.28C37.5781 32.8667 36.9715 33.3267 36.2381 33.66C35.5048 33.9933 34.6848 34.16 33.7781 34.16C32.6848 34.16 31.7115 33.9267 30.8581 33.46C30.0048 32.9933 29.3381 32.3267 28.8581 31.46C28.3781 30.5933 28.1381 29.58 28.1381 28.42C28.1381 27.26 28.3715 26.2467 28.8381 25.38C29.3181 24.5133 29.9848 23.8467 30.8381 23.38C31.6915 22.9133 32.6715 22.68 33.7781 22.68C34.8581 22.68 35.8181 22.9067 36.6581 23.36C37.4981 23.8133 38.1515 24.46 38.6181 25.3C39.0981 26.14 39.3381 27.12 39.3381 28.24ZM35.8381 27.34C35.8381 26.7533 35.6381 26.2867 35.2381 25.94C34.8381 25.5933 34.3381 25.42 33.7381 25.42C33.1648 25.42 32.6781 25.5867 32.2781 25.92C31.8915 26.2533 31.6515 26.7267 31.5581 27.34H35.8381ZM45.6823 34.16C44.709 34.16 43.8423 33.9933 43.0823 33.66C42.3223 33.3267 41.7223 32.8733 41.2823 32.3C40.8423 31.7133 40.5957 31.06 40.5423 30.34H43.9223C43.9623 30.7267 44.1423 31.04 44.4623 31.28C44.7823 31.52 45.1757 31.64 45.6423 31.64C46.069 31.64 46.3957 31.56 46.6223 31.4C46.8623 31.2267 46.9823 31.0067 46.9823 30.74C46.9823 30.42 46.8157 30.1867 46.4823 30.04C46.149 29.88 45.609 29.7067 44.8623 29.52C44.0623 29.3333 43.3957 29.14 42.8623 28.94C42.329 28.7267 41.869 28.4 41.4823 27.96C41.0957 27.5067 40.9023 26.9 40.9023 26.14C40.9023 25.5 41.0757 24.92 41.4223 24.4C41.7823 23.8667 42.3023 23.4467 42.9823 23.14C43.6757 22.8333 44.4957 22.68 45.4423 22.68C46.8423 22.68 47.9423 23.0267 48.7423 23.72C49.5557 24.4133 50.0223 25.3333 50.1423 26.48H46.9823C46.929 26.0933 46.7557 25.7867 46.4623 25.56C46.1823 25.3333 45.809 25.22 45.3423 25.22C44.9423 25.22 44.6357 25.3 44.4223 25.46C44.209 25.6067 44.1023 25.8133 44.1023 26.08C44.1023 26.4 44.269 26.64 44.6023 26.8C44.949 26.96 45.4823 27.12 46.2023 27.28C47.029 27.4933 47.7023 27.7067 48.2223 27.92C48.7423 28.12 49.1957 28.4533 49.5823 28.92C49.9823 29.3733 50.189 29.9867 50.2023 30.76C50.2023 31.4133 50.0157 32 49.6423 32.52C49.2823 33.0267 48.7557 33.4267 48.0623 33.72C47.3823 34.0133 46.589 34.16 45.6823 34.16ZM51.6147 28.4C51.6147 27.2533 51.828 26.2467 52.2547 25.38C52.6947 24.5133 53.288 23.8467 54.0347 23.38C54.7814 22.9133 55.6147 22.68 56.5347 22.68C57.3214 22.68 58.008 22.84 58.5947 23.16C59.1947 23.48 59.6547 23.9 59.9747 24.42V22.84H63.3947V34H59.9747V32.42C59.6414 32.94 59.1747 33.36 58.5747 33.68C57.988 34 57.3014 34.16 56.5147 34.16C55.608 34.16 54.7814 33.9267 54.0347 33.46C53.288 32.98 52.6947 32.3067 52.2547 31.44C51.828 30.56 51.6147 29.5467 51.6147 28.4ZM59.9747 28.42C59.9747 27.5667 59.7347 26.8933 59.2547 26.4C58.788 25.9067 58.2147 25.66 57.5347 25.66C56.8547 25.66 56.2747 25.9067 55.7947 26.4C55.328 26.88 55.0947 27.5467 55.0947 28.4C55.0947 29.2533 55.328 29.9333 55.7947 30.44C56.2747 30.9333 56.8547 31.18 57.5347 31.18C58.2147 31.18 58.788 30.9333 59.2547 30.44C59.7347 29.9467 59.9747 29.2733 59.9747 28.42ZM69.2889 31.36H73.7689V34H65.8689V19.96H69.2889V31.36ZM85.9202 28.24C85.9202 28.56 85.9002 28.8933 85.8602 29.24H78.1202C78.1735 29.9333 78.3935 30.4667 78.7802 30.84C79.1802 31.2 79.6668 31.38 80.2402 31.38C81.0935 31.38 81.6868 31.02 82.0202 30.3H85.6602C85.4735 31.0333 85.1335 31.6933 84.6402 32.28C84.1602 32.8667 83.5535 33.3267 82.8202 33.66C82.0868 33.9933 81.2668 34.16 80.3602 34.16C79.2668 34.16 78.2935 33.9267 77.4402 33.46C76.5868 32.9933 75.9202 32.3267 75.4402 31.46C74.9602 30.5933 74.7202 29.58 74.7202 28.42C74.7202 27.26 74.9535 26.2467 75.4202 25.38C75.9002 24.5133 76.5668 23.8467 77.4202 23.38C78.2735 22.9133 79.2535 22.68 80.3602 22.68C81.4402 22.68 82.4002 22.9067 83.2402 23.36C84.0802 23.8133 84.7335 24.46 85.2002 25.3C85.6802 26.14 85.9202 27.12 85.9202 28.24ZM82.4202 27.34C82.4202 26.7533 82.2202 26.2867 81.8202 25.94C81.4202 25.5933 80.9202 25.42 80.3202 25.42C79.7468 25.42 79.2602 25.5867 78.8602 25.92C78.4735 26.2533 78.2335 26.7267 78.1402 27.34H82.4202ZM87.0444 28.4C87.0444 27.2533 87.2577 26.2467 87.6844 25.38C88.1244 24.5133 88.7177 23.8467 89.4644 23.38C90.211 22.9133 91.0444 22.68 91.9644 22.68C92.751 22.68 93.4377 22.84 94.0244 23.16C94.6244 23.48 95.0844 23.9 95.4044 24.42V22.84H98.8244V34H95.4044V32.42C95.071 32.94 94.6044 33.36 94.0044 33.68C93.4177 34 92.731 34.16 91.9444 34.16C91.0377 34.16 90.211 33.9267 89.4644 33.46C88.7177 32.98 88.1244 32.3067 87.6844 31.44C87.2577 30.56 87.0444 29.5467 87.0444 28.4ZM95.4044 28.42C95.4044 27.5667 95.1644 26.8933 94.6844 26.4C94.2177 25.9067 93.6444 25.66 92.9644 25.66C92.2844 25.66 91.7044 25.9067 91.2244 26.4C90.7577 26.88 90.5244 27.5467 90.5244 28.4C90.5244 29.2533 90.7577 29.9333 91.2244 30.44C91.7044 30.9333 92.2844 31.18 92.9644 31.18C93.6444 31.18 94.2177 30.9333 94.6844 30.44C95.1644 29.9467 95.4044 29.2733 95.4044 28.42ZM104.719 24.7C105.119 24.0867 105.619 23.6067 106.219 23.26C106.819 22.9 107.485 22.72 108.219 22.72V26.34H107.279C106.425 26.34 105.785 26.5267 105.359 26.9C104.932 27.26 104.719 27.9 104.719 28.82V34H101.299V22.84H104.719V24.7ZM116.653 22.72C117.96 22.72 119 23.1467 119.773 24C120.56 24.84 120.953 26 120.953 27.48V34H117.553V27.94C117.553 27.1933 117.36 26.6133 116.973 26.2C116.587 25.7867 116.067 25.58 115.413 25.58C114.76 25.58 114.24 25.7867 113.853 26.2C113.467 26.6133 113.273 27.1933 113.273 27.94V34H109.853V22.84H113.273V24.32C113.62 23.8267 114.087 23.44 114.673 23.16C115.26 22.8667 115.92 22.72 116.653 22.72Z" fill="#1B2143"/>
<path d="M142.915 29.445H136.825V35.675H131.155V29.445H125.065V24.09H131.155V17.825H136.825V24.09H142.915V29.445Z" fill="#1B2143"/>
</svg>
